<?xml version="1.0" encoding="utf-8"?>
<!-- Generated by IcoMoon.io -->
<!DOCTYPE svg PUBLIC "-//W3C//DTD SVG 1.1//EN" "http://www.w3.org/Graphics/SVG/1.1/DTD/svg11.dtd">
<svg version="1.1" xmlns="http://www.w3.org/2000/svg" xmlns:xlink="http://www.w3.org/1999/xlink" width="41" height="32" viewBox="0 0 41 32">
<path d="M25.664 16.288q0 3.744-1.568 6.624t-4.416 4.544-6.592 1.632q-2.656 0-5.088-1.024t-4.192-2.784-2.784-4.192-1.024-5.088 1.024-5.088 2.784-4.192 4.192-2.784 5.088-1.024q5.12 0 8.768 3.424l-3.552 3.424q-2.080-2.016-5.216-2.016-2.208 0-4.064 1.088t-2.944 3.008-1.088 4.16 1.088 4.16 2.944 3.008 4.064 1.088q1.472 0 2.72-0.416t2.048-1.024 1.408-1.376 0.864-1.504 0.384-1.312h-7.424v-4.512h12.352q0.224 1.152 0.224 2.176zM41.152 14.112v3.776h-3.744v3.712h-3.744v-3.712h-3.744v-3.776h3.744v-3.712h3.744v3.712h3.744z"></path>
</svg>
