<?xml version="1.0" encoding="utf-8"?>
<!-- Generated by IcoMoon.io -->
<!DOCTYPE svg PUBLIC "-//W3C//DTD SVG 1.1//EN" "http://www.w3.org/Graphics/SVG/1.1/DTD/svg11.dtd">
<svg version="1.1" xmlns="http://www.w3.org/2000/svg" xmlns:xlink="http://www.w3.org/1999/xlink" width="23" height="32" viewBox="0 0 23 32">
<path d="M0 10.656q0-1.92 0.672-3.616t1.856-2.976 2.72-2.208 3.296-1.408 3.616-0.448q2.816 0 5.248 1.184t3.936 3.456 1.504 5.12q0 1.728-0.32 3.36t-1.088 3.168-1.792 2.656-2.56 1.856-3.392 0.672q-1.216 0-2.4-0.576t-1.728-1.568q-0.16 0.704-0.48 2.016t-0.448 1.696-0.352 1.28-0.48 1.248-0.544 1.12-0.832 1.408-1.12 1.536l-0.224 0.096-0.16-0.192q-0.288-2.816-0.288-3.36 0-1.632 0.384-3.68t1.184-5.152 0.928-3.616q-0.576-1.152-0.576-3.008 0-1.504 0.928-2.784t2.368-1.312q1.088 0 1.696 0.736t0.608 1.824q0 1.184-0.768 3.392t-0.8 3.36q0 1.12 0.8 1.856t1.952 0.736q0.992 0 1.824-0.448t1.408-1.216 0.992-1.696 0.672-1.952 0.352-1.984 0.128-1.792q0-3.072-1.952-4.8t-5.12-1.728q-3.552 0-5.952 2.304t-2.4 5.856q0 0.8 0.224 1.536t0.48 1.152 0.48 0.832 0.224 0.544q0 0.48-0.256 1.28t-0.672 0.8q-0.032 0-0.288-0.032-0.928-0.288-1.632-0.992t-1.088-1.696-0.576-1.92-0.192-1.92z"></path>
</svg>
